<?xml version="1.0" encoding="utf-8"?>
<!-- Generator: Adobe Illustrator 25.3.1, SVG Export Plug-In . SVG Version: 6.00 Build 0)  -->
<svg version="1.1" xmlns="http://www.w3.org/2000/svg" xmlns:xlink="http://www.w3.org/1999/xlink" x="0px" y="0px"
	 viewBox="0 0 24 24" style="enable-background:new 0 0 24 24;" xml:space="preserve">
<style type="text/css">
	.st0{fill:#C9C9C9;}
</style>
<g id="Camada_1">
</g>
<g id="Camada_3">
</g>
<g id="Camada_4">
</g>
<g id="Camada_2">
	<g>
		<path class="st0" d="M20,0H4C1.8,0,0,1.8,0,4v16c0,2.2,1.8,4,4,4h16c2.2,0,4-1.8,4-4V4C24,1.8,22.2,0,20,0z M20,18
			c0,1.1-0.9,2-2,2H6c-1.1,0-2-0.9-2-2V6c0-1.1,0.9-2,2-2h12c1.1,0,2,0.9,2,2V18z"/>
		<path class="st0" d="M12.65,8.24c-0.21,0-0.35,0.07-0.43,0.2c-0.06,0.11-0.13,0.3-0.2,0.58l-1.23,5.07
			c-0.06,0.27-0.09,0.45-0.09,0.53c0,0.18,0.07,0.49,0.55,0.49c0.14,0,0.26-0.04,0.34-0.11c0.08-0.07,0.13-0.16,0.17-0.27
			c0.03-0.1,0.07-0.23,0.11-0.4l1.23-5.07C13.17,9,13.2,8.83,13.2,8.73c0-0.15-0.05-0.28-0.15-0.36
			C12.95,8.28,12.82,8.24,12.65,8.24z"/>
		<path class="st0" d="M9.86,9.5l-3.5,1.52c-0.25,0.11-0.46,0.42-0.46,0.7v0.06c0,0.27,0.21,0.59,0.46,0.7L9.86,14
			c0.25,0.11,0.46-0.03,0.46-0.3v-0.24c0-0.28-0.21-0.58-0.47-0.68l-2.15-0.85c-0.26-0.1-0.26-0.26,0-0.36l2.15-0.83
			c0.26-0.1,0.47-0.4,0.47-0.68V9.81C10.32,9.53,10.12,9.39,9.86,9.5z"/>
		<path class="st0" d="M17.64,11.03l-3.5-1.51c-0.25-0.11-0.46,0.03-0.46,0.3v0.23c0,0.27,0.21,0.58,0.47,0.68l2.16,0.83
			c0.26,0.1,0.26,0.26,0,0.36l-2.16,0.85c-0.26,0.1-0.47,0.41-0.47,0.68v0.24c0,0.27,0.21,0.41,0.46,0.3l3.5-1.53
			c0.25-0.11,0.46-0.42,0.46-0.7v-0.05C18.1,11.45,17.89,11.14,17.64,11.03z"/>
	</g>
</g>
</svg>
