<?xml version="1.0" encoding="utf-8"?>
<!-- Generator: Adobe Illustrator 25.3.1, SVG Export Plug-In . SVG Version: 6.00 Build 0)  -->
<svg version="1.1" xmlns="http://www.w3.org/2000/svg" xmlns:xlink="http://www.w3.org/1999/xlink" x="0px" y="0px"
	 viewBox="0 0 24 24" style="enable-background:new 0 0 24 24;" xml:space="preserve">
<style type="text/css">
	.st0{fill:#C9C9C9;}
</style>
<g id="Camada_1">
</g>
<g id="Camada_3">
</g>
<g id="Camada_4">
</g>
<g id="Camada_2">
	<g>
		<path class="st0" d="M19.56,8.44c-0.59-0.59-1.54-0.59-2.12,0L15,10.88l-2.44-2.44c-0.59-0.59-1.54-0.59-2.12,0
			c-0.59,0.59-0.59,1.54,0,2.12L12.88,13l-2.44,2.44c-0.59,0.59-0.59,1.54,0,2.12c0.59,0.59,1.54,0.59,2.12,0L15,15.12l2.44,2.44
			c0.59,0.59,1.54,0.59,2.12,0c0.59-0.59,0.59-1.54,0-2.12L17.12,13l2.44-2.44C20.15,9.97,20.15,9.03,19.56,8.44z"/>
		<path class="st0" d="M8,8.49C8,8.22,7.78,8,7.5,8H4.5C4.22,8,4,8.22,4,8.49v0.51C4,9.28,4.22,9.5,4.5,9.5H7.5
			C7.78,9.5,8,9.28,8,9.01V8.49z"/>
		<path class="st0" d="M20,2h-3c-0.55,0-1,0.45-1,1c0,0.55,0.45,1,1,1h3c1.1,0,2,0.9,2,2v14c0,1.1-0.9,2-2,2H4c-1.1,0-2-0.9-2-2V6
			c0-1.1,0.9-2,2-2h6v1.4c0,0.49,0.51,0.77,0.87,0.48l2.91-2.4c0.29-0.24,0.29-0.72,0-0.96l-2.91-2.4C10.51-0.17,10,0.11,10,0.6V2H4
			C1.8,2,0,3.8,0,6v14c0,2.2,1.8,4,4,4h16c2.2,0,4-1.8,4-4V6C24,3.8,22.2,2,20,2z"/>
		<path class="st0" d="M7.49,10H4.51C4.23,10,4,10.23,4,10.51v4.29c0,0.39,0.12,0.78,0.34,1.11l1.24,1.86c0.2,0.3,0.65,0.3,0.85,0
			l1.24-1.86C7.88,15.59,8,15.2,8,14.81v-4.29C8,10.23,7.77,10,7.49,10z"/>
	</g>
</g>
</svg>
