<?xml version="1.0" encoding="utf-8"?>
<!-- Generator: Adobe Illustrator 25.3.1, SVG Export Plug-In . SVG Version: 6.00 Build 0)  -->
<svg version="1.1" xmlns="http://www.w3.org/2000/svg" xmlns:xlink="http://www.w3.org/1999/xlink" x="0px" y="0px"
	 viewBox="0 0 24 24" style="enable-background:new 0 0 24 24;" xml:space="preserve">
<style type="text/css">
	.st0{fill:#C9C9C9;}
</style>
<g id="Camada_1">
</g>
<g id="Camada_3">
</g>
<g id="Camada_4">
</g>
<g id="Camada_2">
	<path class="st0" d="M9,24H2c-1.1,0-2-0.9-2-2L0,2c0-1.1,0.9-2,2-2h7c1.1,0,2,0.9,2,2v20C11,23.1,10.1,24,9,24z"/>
	<path class="st0" d="M22,24h-7c-1.1,0-2-0.9-2-2V2c0-1.1,0.9-2,2-2h7c1.1,0,2,0.9,2,2v20C24,23.1,23.1,24,22,24z"/>
</g>
</svg>
