<?xml version="1.0" encoding="utf-8"?>
<!-- Generator: Adobe Illustrator 25.3.1, SVG Export Plug-In . SVG Version: 6.00 Build 0)  -->
<svg version="1.1" xmlns="http://www.w3.org/2000/svg" xmlns:xlink="http://www.w3.org/1999/xlink" x="0px" y="0px"
	 viewBox="0 0 24 24" style="enable-background:new 0 0 24 24;" xml:space="preserve">
<style type="text/css">
	.st0{fill:#C9C9C9;}
</style>
<g id="Camada_1">
</g>
<g id="Camada_3">
</g>
<g id="Camada_4">
</g>
<g id="Camada_2">
	<g>
		<path class="st0" d="M20,0H4C1.79,0,0,1.79,0,4V20c0,2.21,1.79,4,4,4H20c2.21,0,4-1.79,4-4V4C24,1.79,22.21,0,20,0z M22,20
			c0,1.1-0.9,2-2,2H4c-1.1,0-2-0.9-2-2V4c0-1.1,0.9-2,2-2H20c1.1,0,2,0.9,2,2V20z"/>
		<path class="st0" d="M19.5,4H16.5C16.22,4,16,4.22,16,4.49v0.51c0,0.27,0.22,0.49,0.5,0.49h3.01c0.27,0,0.5-0.22,0.5-0.49V4.49
			C20,4.22,19.78,4,19.5,4z"/>
		<path class="st0" d="M19.49,6h-2.98C16.23,6,16,6.23,16,6.51v6.29c0,0.39,0.12,0.78,0.34,1.11l1.24,1.86c0.2,0.3,0.65,0.3,0.85,0
			l1.24-1.86C19.88,13.59,20,13.2,20,12.81V6.51C20,6.23,19.77,6,19.49,6z"/>
		<path class="st0" d="M18,18H7c-0.55,0-1-0.45-1-1c0-0.55,0.45-1,1-1h4c1.65,0,3-1.34,3-3c0-1.66-1.35-3-3-3H9c-0.55,0-1,0.45-1,1
			s0.45,1,1,1h2c0.55,0,1,0.45,1,1c0,0.55-0.45,1-1,1H7c-1.66,0-3,1.35-3,3c0,1.65,1.34,3,3,3h11c0.55,0,1-0.45,1-1S18.55,18,18,18z
			"/>
	</g>
</g>
</svg>
