<?xml version="1.0" encoding="utf-8"?>
<!-- Generator: Adobe Illustrator 25.3.1, SVG Export Plug-In . SVG Version: 6.00 Build 0)  -->
<svg version="1.1" xmlns="http://www.w3.org/2000/svg" xmlns:xlink="http://www.w3.org/1999/xlink" x="0px" y="0px"
	 viewBox="0 0 24 24" style="enable-background:new 0 0 24 24;" xml:space="preserve">
<style type="text/css">
	.st0{fill:#C9C9C9;}
</style>
<g id="Camada_1">
</g>
<g id="Camada_3">
</g>
<g id="Camada_4">
</g>
<g id="Camada_2">
	<path class="st0" d="M3.67,24H3c-1.65,0-3-1.35-3-3L0,3c0-1.65,1.35-3,3-3h0.67c1.65,0,3,1.35,3,3v18C6.67,22.65,5.32,24,3.67,24z"
		/>
	<path class="st0" d="M12.33,24h-0.67c-1.65,0-3-1.35-3-3V3c0-1.65,1.35-3,3-3h0.67c1.65,0,3,1.35,3,3v18
		C15.33,22.65,13.98,24,12.33,24z"/>
	<path class="st0" d="M21,24h-0.67c-1.65,0-3-1.35-3-3V3c0-1.65,1.35-3,3-3H21c1.65,0,3,1.35,3,3v18C24,22.65,22.65,24,21,24z"/>
</g>
</svg>
