<svg xmlns="http://www.w3.org/2000/svg" viewBox="0 0 24 24"><style>.st0{fill:#c9c9c9}</style><g id="Camada_2"><path class="st0" d="M20 0H4C1.79 0 0 1.79 0 4v16c0 2.21 1.79 4 4 4h16c2.21 0 4-1.79 4-4V4c0-2.21-1.79-4-4-4zm2 20c0 1.1-.9 2-2 2H4c-1.1 0-2-.9-2-2V4c0-1.1.9-2 2-2h16c1.1 0 2 .9 2 2v16z"/><path class="st0" d="M19.5 4h-3c-.28 0-.5.22-.5.49V5c0 .27.22.49.5.49h3.01a.5.5 0 0 0 .5-.49v-.51A.508.508 0 0 0 19.5 4zM19.49 6h-2.98c-.28 0-.51.23-.51.51v6.29c0 .39.12.78.34 1.11l1.24 1.86c.2.3.65.3.85 0l1.24-1.86c.21-.32.33-.71.33-1.1v-6.3c0-.28-.23-.51-.51-.51zM18 18H7c-.55 0-1-.45-1-1s.45-1 1-1h4c1.65 0 3-1.34 3-3s-1.35-3-3-3H9c-.55 0-1 .45-1 1s.45 1 1 1h2c.55 0 1 .45 1 1s-.45 1-1 1H7c-1.66 0-3 1.35-3 3s1.34 3 3 3h11c.55 0 1-.45 1-1s-.45-1-1-1z"/></g></svg>