<svg xmlns="http://www.w3.org/2000/svg" viewBox="0 0 24 24"><style>.st0{fill:#c9c9c9}</style><g id="Camada_2"><path class="st0" d="M19.56 8.44a1.49 1.49 0 0 0-2.12 0L15 10.88l-2.44-2.44a1.49 1.49 0 0 0-2.12 0 1.49 1.49 0 0 0 0 2.12L12.88 13l-2.44 2.44a1.49 1.49 0 0 0 0 2.12c.59.59 1.54.59 2.12 0L15 15.12l2.44 2.44c.59.59 1.54.59 2.12 0 .59-.59.59-1.54 0-2.12L17.12 13l2.44-2.44c.59-.59.59-1.53 0-2.12zM8 8.49C8 8.22 7.78 8 7.5 8h-3c-.28 0-.5.22-.5.49V9c0 .28.22.5.5.5h3c.28 0 .5-.22.5-.49v-.52z"/><path class="st0" d="M20 2h-3c-.55 0-1 .45-1 1s.45 1 1 1h3c1.1 0 2 .9 2 2v14c0 1.1-.9 2-2 2H4c-1.1 0-2-.9-2-2V6c0-1.1.9-2 2-2h6v1.4c0 .49.51.77.87.48l2.91-2.4c.29-.24.29-.72 0-.96L10.87.12C10.51-.17 10 .11 10 .6V2H4C1.8 2 0 3.8 0 6v14c0 2.2 1.8 4 4 4h16c2.2 0 4-1.8 4-4V6c0-2.2-1.8-4-4-4z"/><path class="st0" d="M7.49 10H4.51c-.28 0-.51.23-.51.51v4.29c0 .39.12.78.34 1.11l1.24 1.86c.2.3.65.3.85 0l1.24-1.86c.21-.32.33-.71.33-1.1v-4.29c0-.29-.23-.52-.51-.52z"/></g></svg>