<svg xmlns="http://www.w3.org/2000/svg" viewBox="0 0 24 24"><style>.st0{fill:#c9c9c9}</style><g id="Camada_2"><path class="st0" d="M20 0H4C1.8 0 0 1.8 0 4v16c0 2.2 1.8 4 4 4h16c2.2 0 4-1.8 4-4V4c0-2.2-1.8-4-4-4zm0 18c0 1.1-.9 2-2 2H6c-1.1 0-2-.9-2-2V6c0-1.1.9-2 2-2h12c1.1 0 2 .9 2 2v12z"/><path class="st0" d="M12.65 8.24c-.21 0-.35.07-.43.2-.06.11-.13.3-.2.58l-1.23 5.07c-.06.27-.09.45-.09.53 0 .18.07.49.55.49.14 0 .26-.04.34-.11.08-.07.13-.16.17-.27.03-.1.07-.23.11-.4l1.23-5.07c.07-.26.1-.43.1-.53 0-.15-.05-.28-.15-.36-.1-.09-.23-.13-.4-.13zM9.86 9.5l-3.5 1.52a.83.83 0 0 0-.46.7v.06c0 .27.21.59.46.7L9.86 14c.25.11.46-.03.46-.3v-.24a.78.78 0 0 0-.47-.68l-2.15-.85c-.26-.1-.26-.26 0-.36l2.15-.83c.26-.1.47-.4.47-.68v-.25c0-.28-.2-.42-.46-.31zM17.64 11.03l-3.5-1.51c-.25-.11-.46.03-.46.3v.23c0 .27.21.58.47.68l2.16.83c.26.1.26.26 0 .36l-2.16.85c-.26.1-.47.41-.47.68v.24c0 .27.21.41.46.3l3.5-1.53a.83.83 0 0 0 .46-.7v-.05c0-.26-.21-.57-.46-.68z"/></g></svg>