<svg xmlns="http://www.w3.org/2000/svg" viewBox="0 0 24 24"><style>.st0{fill:#c9c9c9}</style><g id="Camada_2"><path class="st0" d="M15 3c0-1.66-1.34-3-3-3S9 1.34 9 3c0 1.3.84 2.4 2 2.82v2.37C9.84 8.6 9 9.7 9 11s.84 2.4 2 2.82v2.37C9.84 16.6 9 17.7 9 19s.84 2.4 2 2.82V23c0 .55.45 1 1 1s1-.45 1-1v-1.18c1.16-.41 2-1.51 2-2.82s-.84-2.4-2-2.82v-2.37c1.16-.41 2-1.51 2-2.82s-.84-2.4-2-2.82V5.82C14.16 5.4 15 4.3 15 3zm-4.04 0c0-.55.45-1 1-1s1 .45 1 1-.45 1-1 1-1-.45-1-1zM12 20c-.55 0-1-.45-1-1s.45-1 1-1 1 .45 1 1-.45 1-1 1zm0-8c-.55 0-1-.45-1-1s.45-1 1-1 1 .45 1 1-.45 1-1 1zM5 0H2C.9 0 0 .9 0 2s.9 2 2 2h3c1.1 0 2-.9 2-2s-.9-2-2-2zM19 12h3c1.1 0 2-.9 2-2s-.9-2-2-2h-3c-1.1 0-2 .9-2 2s.9 2 2 2zM5 16H2c-1.1 0-2 .9-2 2s.9 2 2 2h3c1.1 0 2-.9 2-2s-.9-2-2-2zM6 6H1c-.55 0-1 .45-1 1s.45 1 1 1h5c.55 0 1-.45 1-1s-.45-1-1-1zM23 14h-5c-.55 0-1 .45-1 1s.45 1 1 1h5c.55 0 1-.45 1-1s-.45-1-1-1zM6 22H1c-.55 0-1 .45-1 1s.45 1 1 1h5c.55 0 1-.45 1-1s-.45-1-1-1z"/></g></svg>