<svg xmlns="http://www.w3.org/2000/svg" viewBox="0 0 24 24"><style>.st0{fill:#c9c9c9}</style><g id="Camada_2"><path class="st0" d="M-2892 0c-6.63 0-12 5.37-12 12s5.37 12 12 12 12-5.37 12-12-5.37-12-12-12zm4 13h-4c-.55 0-1-.45-1-1V5c0-.55.45-1 1-1s1 .45 1 1v6h3c.55 0 1 .45 1 1s-.45 1-1 1zM-2840 0h-16c-2.2 0-4 1.8-4 4v16c0 2.2 1.8 4 4 4h16c2.2 0 4-1.8 4-4V4c0-2.2-1.8-4-4-4zm-1.29 8.71l-8.01 8a.996.996 0 0 1-1.41 0l-4-3.99a.996.996 0 0 1 0-1.41.996.996 0 0 1 1.41 0l3.29 3.29 7.3-7.3a.996.996 0 0 1 1.41 0c.4.38.4 1.02.01 1.41zM-2796 2h-1V.98c0-.54-.44-.98-.98-.98h-2.04c-.54 0-.98.44-.98.98V2h-6V.98c0-.54-.44-.98-.98-.98h-2.04c-.54 0-.98.44-.98.98V2h-1c-2.2 0-4 1.8-4 4v14c0 2.2 1.8 4 4 4h16c2.2 0 4-1.8 4-4V6c0-2.2-1.8-4-4-4zm-12 13c0 .55-.45 1-1 1h-2c-.55 0-1-.45-1-1v-2c0-.55.45-1 1-1h2c.55 0 1 .45 1 1v2zm0-6c0 .55-.45 1-1 1h-2c-.55 0-1-.45-1-1V7c0-.55.45-1 1-1h2c.55 0 1 .45 1 1v2zm6 6c0 .55-.45 1-1 1h-2c-.55 0-1-.45-1-1v-2c0-.55.45-1 1-1h2c.55 0 1 .45 1 1v2zm0-6c0 .55-.45 1-1 1h-2c-.55 0-1-.45-1-1V7c0-.55.45-1 1-1h2c.55 0 1 .45 1 1v2zm6 6c0 .55-.45 1-1 1h-2c-.55 0-1-.45-1-1v-2c0-.55.45-1 1-1h2c.55 0 1 .45 1 1v2zm0-6c0 .55-.45 1-1 1h-2c-.55 0-1-.45-1-1V7c0-.55.45-1 1-1h2c.55 0 1 .45 1 1v2zM-2710 7.2c-.2 0-.39.04-.59.06A7.191 7.191 0 0 0-2716 4.8c-3.15 0-5.82 2.02-6.8 4.84-.14-.01-.27-.04-.4-.04a4.801 4.801 0 0 0 0 9.6h13.2c3.31 0 6-2.69 6-6s-2.69-6-6-6zm-4 5.3h-.5v3c0 .55-.45 1-1 1h-1c-.55 0-1-.45-1-1v-3h-.5a1.003 1.003 0 0 1-.71-1.71l2-2c.18-.18.43-.29.71-.29s.53.11.71.29l2 2a1.003 1.003 0 0 1-.71 1.71zM-2664 2h-1V.98c0-.54-.44-.98-.98-.98h-2.04c-.54 0-.98.44-.98.98V2h-6V.98c0-.54-.44-.98-.98-.98h-2.04c-.54 0-.98.44-.98.98V2h-1c-2.2 0-4 1.8-4 4v14c0 2.2 1.8 4 4 4h16c2.2 0 4-1.8 4-4V6c0-2.2-1.8-4-4-4zm-6 12c0 1.1-.9 2-2 2h-6c-1.1 0-2-.9-2-2V8c0-1.1.9-2 2-2h6c1.1 0 2 .9 2 2v6zm6 1c0 .55-.45 1-1 1h-2c-.55 0-1-.45-1-1v-2c0-.55.45-1 1-1h2c.55 0 1 .45 1 1v2zm0-6c0 .55-.45 1-1 1h-2c-.55 0-1-.45-1-1V7c0-.55.45-1 1-1h2c.55 0 1 .45 1 1v2z"/><path class="st0" d="M-2675.49 9.1c-.14-.15-.31-.26-.5-.33s-.41-.11-.64-.11c-.36 0-.66.09-.92.26s-.45.42-.59.75c-.08.2-.13.44-.17.71-.04.28-.05.59-.05.93 0 .27.02.51.05.74.03.23.08.44.16.63.14.35.35.62.62.81.27.2.58.29.93.29.3 0 .57-.07.82-.22s.45-.35.6-.62c.12-.22.21-.46.25-.73.05-.27.07-.59.07-.96 0-.69-.09-1.22-.26-1.6-.1-.22-.22-.4-.37-.55zm-.38 3.14c-.05.27-.13.48-.25.62-.12.15-.28.22-.49.22a.6.6 0 0 1-.48-.21c-.12-.14-.2-.35-.25-.62a5.9 5.9 0 0 1-.08-1.05c0-.63.06-1.1.18-1.4.12-.3.33-.46.63-.46.21 0 .37.07.49.2.12.14.2.34.25.6.05.27.08.61.08 1.02-.01.45-.03.81-.08 1.08zM-2672.46 8.66c-.11 0-.18.02-.22.06-.04.04-.12.15-.25.33s-.27.34-.44.48-.39.28-.66.41c-.18.09-.31.16-.39.21-.07.05-.11.14-.11.26 0 .1.04.19.11.26s.16.11.25.11c.2 0 .59-.22 1.17-.67v3.11c0 .18.04.32.13.41.08.09.2.14.34.14.31 0 .47-.23.47-.69V9.19c0-.16-.04-.29-.11-.39a.37.37 0 0 0-.29-.14zM-2583.13 1.08l2.95 5.99c.14.29.42.49.73.53l6.61.96c.8.12 1.12 1.1.54 1.66l-4.78 4.66c-.23.22-.33.55-.28.86l1.13 6.58c.14.8-.7 1.4-1.41 1.03l-5.91-3.11a.976.976 0 0 0-.91 0l-5.91 3.11c-.71.38-1.55-.23-1.41-1.03l1.13-6.58a.973.973 0 0 0-.28-.86l-4.78-4.66c-.58-.56-.26-1.54.54-1.66l6.61-.96c.32-.05.59-.25.73-.53l2.95-5.99c.36-.72 1.4-.72 1.75 0zM-2277 8h2c.55 0 1-.45 1-1s-.45-1-1-1h-1V5c0-.55-.45-1-1-1s-1 .45-1 1v2c0 .55.45 1 1 1z"/><circle class="st0" cx="-2287" cy="11" r="1"/><path class="st0" d="M-2267 20h-5v-3c0-.55-.45-1-1-1s-1 .45-1 1v5h-3c-.55 0-1 .45-1 1s.45 1 1 1h6c.55 0 1-.45 1-1s-.45-1-1-1h4c.55 0 1-.45 1-1s-.45-1-1-1z"/><circle class="st0" cx="-2277" cy="19" r="1"/><path class="st0" d="M-2265 10c-.55 0-1 .45-1 1v1h-1c-.55 0-1 .45-1 1s.45 1 1 1h1v1c0 .55.45 1 1 1s1-.45 1-1v-4c0-.55-.45-1-1-1zM-2278 12h1c.55 0 1-.45 1-1s-.45-1-1-1h-2c-.55 0-1 .45-1 1v4c0 .55.45 1 1 1s1-.45 1-1v-3zM-2276 13c0 .55.45 1 1 1h4c.55 0 1-.45 1-1s-.45-1-1-1h-4c-.55 0-1 .45-1 1z"/><circle class="st0" cx="-2273" cy="9" r="1"/><path class="st0" d="M-2284 11v1h-1c-.55 0-1 .45-1 1s.45 1 1 1h2c.55 0 1-.45 1-1v-2c0-.55-.45-1-1-1s-1 .45-1 1zM-2287 8h6c.55 0 1-.45 1-1V1c0-.55-.45-1-1-1h-6c-.55 0-1 .45-1 1v6c0 .55.45 1 1 1zm1-5c0-.55.45-1 1-1h2c.55 0 1 .45 1 1v2c0 .55-.45 1-1 1h-2c-.55 0-1-.45-1-1V3zM-2265 0h-6c-.55 0-1 .45-1 1v6c0 .55.45 1 1 1h6c.55 0 1-.45 1-1V1c0-.55-.45-1-1-1zm-1 5c0 .55-.45 1-1 1h-2c-.55 0-1-.45-1-1V3c0-.55.45-1 1-1h2c.55 0 1 .45 1 1v2zM-2281 16h-6c-.55 0-1 .45-1 1v6c0 .55.45 1 1 1h6c.55 0 1-.45 1-1v-6c0-.55-.45-1-1-1zm-1 5c0 .55-.45 1-1 1h-2c-.55 0-1-.45-1-1v-2c0-.55.45-1 1-1h2c.55 0 1 .45 1 1v2zM-2180 0h-16c-2.2 0-4 1.8-4 4v16c0 2.2 1.8 4 4 4h16c2.2 0 4-1.8 4-4V4c0-2.2-1.8-4-4-4zm0 18c0 1.1-.9 2-2 2h-12c-1.1 0-2-.9-2-2v-3c0-1.1.9-2 2-2h12c1.1 0 2 .9 2 2v3zm0-9c0 1.1-.9 2-2 2h-12c-1.1 0-2-.9-2-2V6c0-1.1.9-2 2-2h12c1.1 0 2 .9 2 2v3zM-2136 0h-16c-2.2 0-4 1.8-4 4v16c0 2.2 1.8 4 4 4h16c2.2 0 4-1.8 4-4V4c0-2.2-1.8-4-4-4zm-9 18c0 1.1-.9 2-2 2h-3c-1.1 0-2-.9-2-2V6c0-1.1.9-2 2-2h3c1.1 0 2 .9 2 2v12zm9 0c0 1.1-.9 2-2 2h-3c-1.1 0-2-.9-2-2V6c0-1.1.9-2 2-2h3c1.1 0 2 .9 2 2v12zM-2057.74 12.1l-1.49 1.49-2.48 2.48a.996.996 0 0 0 0 1.41l.22.22c.39.39 1.03.39 1.41 0l9.76-9.76a.996.996 0 0 0 0-1.41l-.22-.22a.996.996 0 0 0-1.41 0l-2.46 2.46-1.49 1.49-1.84 1.84z"/><path class="st0" d="M-2057.48 16.52c-.09.5-.32.98-.7 1.36l-3.37 3.37c-.48.48-1.12.74-1.8.74-.68 0-1.32-.26-1.8-.74l-.11-.11c-.99-.99-.99-2.61 0-3.6l3.37-3.37c.37-.37.84-.61 1.36-.7l1.81-1.81c-.45-.14-.9-.23-1.37-.23-1.17 0-2.33.44-3.21 1.33l-3.37 3.37a4.557 4.557 0 0 0 0 6.43l.11.11c.88.88 2.05 1.33 3.21 1.33 1.17 0 2.33-.44 3.21-1.33l3.37-3.37c1.24-1.24 1.59-3.02 1.1-4.58l-1.81 1.8zM-2045.33 1.43l-.11-.11a4.545 4.545 0 0 0-3.21-1.33c-1.17 0-2.33.44-3.21 1.33l-3.37 3.37c-1.24 1.24-1.59 3.02-1.1 4.58l1.81-1.81c.09-.5.32-.98.7-1.36l3.37-3.37c.48-.48 1.12-.74 1.8-.74.68 0 1.32.26 1.8.74l.11.11c.99.99.99 2.61 0 3.6l-3.37 3.37c-.37.37-.84.61-1.36.7l-1.81 1.81c.45.14.9.23 1.37.23 1.17 0 2.33-.44 3.21-1.33l3.37-3.37c1.77-1.75 1.77-4.65 0-6.42zM-1957 22h-3v-7c0-.55-.45-1-1-1h-2c-.55 0-1 .45-1 1v7h-2V3c0-.55-.45-1-1-1h-2c-.55 0-1 .45-1 1v19h-2V9c0-.55-.45-1-1-1h-2c-.55 0-1 .45-1 1v13h-2V1c0-.55-.45-1-1-1s-1 .45-1 1v22c0 .55.45 1 1 1h22c.55 0 1-.45 1-1s-.45-1-1-1zM-1914 0h-20c-1.1 0-2 .9-2 2v2c0 1.1.9 2 2 2h20c1.1 0 2-.9 2-2V2c0-1.1-.9-2-2-2zM-1914.81 8.71c-.39-.39-1.16-.71-1.71-.71h-18.95c-.55 0-.68.32-.29.71l2.59 2.59c.39.39 1.16.71 1.71.71h18.95c.55 0 .68-.32.29-.71l-2.59-2.59zM-1931.47 14c-.55 0-1.32.32-1.71.71l-2.59 2.59c-.39.39-.26.71.29.71h18.95c.55 0 1.32-.32 1.71-.71l2.59-2.59c.39-.39.26-.71-.29-.71h-18.95zM-1914.82 20.71c-.39-.39-1.16-.71-1.71-.71h-18.95c-.55 0-.68.32-.29.71l2.59 2.59c.39.39 1.16.71 1.71.71h18.95c.55 0 .68-.32.29-.71l-2.59-2.59zM-1872 0h-16c-2.2 0-4 1.8-4 4v16c0 2.2 1.8 4 4 4h16c2.2 0 4-1.8 4-4V4c0-2.2-1.8-4-4-4zm0 11c0 .55-.45 1-1 1h-14c-.55 0-1-.45-1-1V5c0-.55.45-1 1-1h14c.55 0 1 .45 1 1v6zM-1396 3.99h4.01a2 2 0 1 0 0-4h-4.01a2 2 0 0 0-2 2c0 1.11.89 2 2 2z"/><path class="st0" d="M-1386 6h-12a2 2 0 0 1-2-2V2a2 2 0 0 0-2-2h-4.01a2 2 0 0 0-2 2v20a2 2 0 0 0 2 2h20.01a2 2 0 0 0 2-2V8c0-1.11-.89-2-2-2zm-2 12c0 1.1-.9 2-2 2h-12c-1.1 0-2-.9-2-2v-6c0-1.1.9-2 2-2h12c1.1 0 2 .9 2 2v6zM-860 2h-1V.98c0-.54-.44-.98-.98-.98h-2.04c-.54 0-.98.44-.98.98V2h-6V.98c0-.54-.44-.98-.98-.98h-2.04c-.54 0-.98.44-.98.98V2h-1c-2.2 0-4 1.8-4 4v14c0 2.2 1.8 4 4 4h16c2.2 0 4-1.8 4-4V6c0-2.2-1.8-4-4-4zm-8 17c-3.31 0-6-2.69-6-6s2.69-6 6-6 6 2.69 6 6-2.69 6-6 6z"/><path class="st0" d="M-865.95 12.5h-1.55V9.45c0-.25-.2-.45-.45-.45h-.11c-.25 0-.45.2-.45.45v3.61c0 .25.2.45.45.45h2.11c.25 0 .45-.2.45-.45v-.11c0-.25-.2-.45-.45-.45zM-2532 0h-16c-2.2 0-4 1.8-4 4v16c0 2.2 1.8 4 4 4h16c2.2 0 4-1.8 4-4V4c0-2.2-1.8-4-4-4zm-16 2h16c1.1 0 2 .9 2 2v7l-2.71-2.71a.996.996 0 0 0-1.41 0l-7.42 7.42-3.4-3.4a.996.996 0 0 0-1.41 0l-3.65 3.65V4c0-1.1.9-2 2-2z"/><circle class="st0" cx="-2545" cy="7" r="3"/><path class="st0" d="M-2488 0h-16c-2.2 0-4 1.8-4 4v16c0 2.2 1.8 4 4 4h16c2.2 0 4-1.8 4-4V4c0-2.2-1.8-4-4-4zm-6.5 18h1.5c.55 0 1 .45 1 1s-.45 1-1 1h-6c-.55 0-1-.45-1-1s.45-1 1-1h1.5c.28 0 .5-.22.5-.5v-11c0-.28-.22-.5-.5-.5h-1.5c-.55 0-1-.45-1-1s.45-1 1-1h6c.55 0 1 .45 1 1s-.45 1-1 1h-1.5c-.28 0-.5.22-.5.5v11c0 .28.22.5.5.5zM-2445.5 14c-.82 0-1.5.67-1.5 1.5v-1c0-.83-.68-1.5-1.5-1.5s-1.5.67-1.5 1.5v-1c0-.83-.68-1.5-1.5-1.5s-1.5.67-1.5 1.5v-6c0-.83-.68-1.5-1.5-1.5s-1.5.67-1.5 1.5v10.49l-1.44-1.44a1.49 1.49 0 0 0-2.12 0 1.49 1.49 0 0 0 0 2.12l3.26 3.26 1.06 1.06.01-.01c.55.61 1.34 1.01 2.22 1.01h6c1.65 0 3-1.35 3-3V15.5c.01-.82-.67-1.5-1.49-1.5z"/><path class="st0" d="M-2444 2h-16c-2.2 0-4 1.8-4 4v2c0 2.2 1.8 4 4 4h2V7.5c0-1.93 1.57-3.5 3.5-3.5s3.5 1.57 3.5 3.5v2.54c.77.11 1.46.47 1.99 1 .17-.02.34-.04.51-.04.95 0 1.81.38 2.44 1h2.06c2.2 0 4-1.8 4-4V6c0-2.2-1.8-4-4-4zM-1828 0h-16c-2.2 0-4 1.8-4 4v16c0 2.2 1.8 4 4 4h16c2.2 0 4-1.8 4-4V4c0-2.2-1.8-4-4-4zm0 6.97V11c0 .55-.45 1-1 1h-2c-.55 0-1-.45-1-1V8.5c0-.28-.22-.5-.5-.5h.5v-.03h-2v7.53c0 .28.22.5.5.5h.5c.55 0 1 .45 1 1v2c0 .55-.45 1-1 1h-6c-.55 0-1-.45-1-1v-2c0-.55.45-1 1-1h.5c.28 0 .5-.22.5-.5V7.97h-2V8h.5c-.28 0-.5.22-.5.5v2.6c0 .55-.45 1-1 1h-2c-.55 0-1-.45-1-1V5c0-.55.45-1 1-1h14c.55 0 1 .45 1 1v1.97z"/><circle class="st0" cx="-2324" cy="21" r="1"/><circle class="st0" cx="-2320" cy="21" r="1"/><circle class="st0" cx="-2316" cy="21" r="1"/><path class="st0" d="M-2312 2h-16c-2.21 0-4 1.79-4 4v8c0 2.21 1.79 4 4 4h16c2.21 0 4-1.79 4-4V6c0-2.21-1.79-4-4-4zm-14 9.83h-.03c-.04.24-.13.47-.31.66-.46.46-1.2.46-1.66 0l-1.66-1.66a1.17 1.17 0 0 1 0-1.66l1.66-1.66a1.17 1.17 0 0 1 2 .83v3.49zm15.66-1l-1.66 1.66c-.46.46-1.2.46-1.66 0-.18-.18-.27-.42-.31-.66h-.03V8.34a1.17 1.17 0 0 1 2-.83l1.66 1.66c.45.46.45 1.2 0 1.66zM-1784 10h-16c-2.2 0-4 1.8-4 4v6c0 2.2 1.8 4 4 4h16c2.2 0 4-1.8 4-4v-6c0-2.2-1.8-4-4-4zm-1 10h-14c-.55 0-1-.45-1-1s.45-1 1-1h14c.55 0 1 .45 1 1s-.45 1-1 1zm0-4h-14c-.55 0-1-.45-1-1s.45-1 1-1h14c.55 0 1 .45 1 1s-.45 1-1 1zM-1800 8h16c2.2 0 4-1.8 4-4s-1.8-4-4-4h-16c-2.2 0-4 1.8-4 4s1.8 4 4 4zm10.69-5.66c.18-.18.42-.27.66-.31V2h3.48a1.17 1.17 0 0 1 .83 2l-1.66 1.66c-.46.46-1.2.46-1.66 0l-1.66-1.66c-.45-.46-.45-1.2.01-1.66zM-1696 0h-16c-2.2 0-4 1.8-4 4v16c0 2.2 1.8 4 4 4h16c2.2 0 4-1.8 4-4V4c0-2.2-1.8-4-4-4zm-10.29 20.29c.39.39.39 1.03 0 1.42-.39.39-1.03.39-1.42 0l-1.29-1.29-1.29 1.29c-.39.39-1.03.39-1.42 0-.39-.39-.39-1.03 0-1.42l1.29-1.29-1.29-1.29c-.39-.39-.39-1.03 0-1.42.39-.39 1.03-.39 1.42 0l1.29 1.29 1.29-1.29c.39-.39 1.03-.39 1.42 0 .39.39.39 1.03 0 1.42l-1.29 1.29 1.29 1.29zm10-2.58l-3.96 3.98-.01.01a.996.996 0 0 1-1.41 0c-.02-.02-.03-.05-.05-.08l-1.98-1.96a.984.984 0 0 1 0-1.4c.39-.38 1.02-.38 1.41 0l1.33 1.31 3.27-3.29a.996.996 0 0 1 1.41 0c.38.4.38 1.04-.01 1.43zm.29-4.71c0 .55-.45 1-1 1h-14c-.55 0-1-.45-1-1v-2c0-.55.45-1 1-1h14c.55 0 1 .45 1 1v2zm0-6c0 .55-.45 1-1 1h-14c-.55 0-1-.45-1-1V5c0-.55.45-1 1-1h14c.55 0 1 .45 1 1v2zM-1564 0h-16c-2.2 0-4 1.8-4 4v16c0 2.2 1.8 4 4 4h16c2.2 0 4-1.8 4-4V4c0-2.2-1.8-4-4-4zm0 18c0 1.1-.9 2-2 2h-12c-1.1 0-2-.9-2-2V6c0-1.1.9-2 2-2h12c1.1 0 2 .9 2 2v12z"/><path class="st0" d="M-1567 6h-10c-.55 0-1 .45-1 1v5.97c0 .55.45 1 1 1h10c.55 0 1-.45 1-1V7c0-.55-.45-1-1-1zM-1516.67 10.43c-2.61.95-6.7 1.57-11.33 1.57s-8.72-.62-11.33-1.57a.502.502 0 0 0-.67.48v2.93c0 .21.12.39.31.47 2.59 1.02 6.86 1.69 11.69 1.69 4.83 0 9.1-.67 11.69-1.69.19-.08.31-.26.31-.47V10.9a.5.5 0 0 0-.67-.47zM-1516.67 16.43c-2.61.95-6.7 1.57-11.33 1.57s-8.72-.62-11.33-1.57a.502.502 0 0 0-.67.48v2.93c0 .21.12.39.31.47 2.59 1.02 6.86 1.69 11.69 1.69 4.83 0 9.1-.67 11.69-1.69.19-.08.31-.26.31-.47V16.9a.5.5 0 0 0-.67-.47zM-1516.31 3.69C-1518.9 2.67-1523.17 2-1528 2s-9.1.67-11.69 1.69c-.19.08-.31.26-.31.47v3.68c0 .2.12.39.31.47 2.59 1.02 6.86 1.69 11.69 1.69s9.1-.67 11.69-1.69c.19-.08.31-.26.31-.47V4.16c0-.2-.12-.39-.31-.47zM-1492.99 16V8h-1.01c-1.1 0-2 .9-2 2v4c0 1.1.9 2 2 2h1.01zM-1486 8h-1.01v8h1.01c1.1 0 2-.9 2-2v-4c0-1.1-.9-2-2-2z"/><path class="st0" d="M-1487 18h-1.5c-.28 0-.5-.22-.5-.5v-11c0-.28.22-.5.5-.5h1.5c.55 0 1-.45 1-1s-.45-1-1-1h-6c-.55 0-1 .45-1 1s.45 1 1 1h1.5c.28 0 .5.22.5.5v11c0 .28-.22.5-.5.5h-1.5c-.55 0-1 .45-1 1s.45 1 1 1h6c.55 0 1-.45 1-1s-.45-1-1-1zM-1474.25 15.17a.732.732 0 0 0-.53-.22c-.41 0-.75.34-.75.75v-.5c0-.21-.08-.39-.22-.53s-.32-.22-.53-.22c-.31 0-.58.19-.69.46-.04.09-.06.19-.06.29v-.5c0-.21-.08-.39-.22-.53s-.32-.22-.53-.22c-.1 0-.2.02-.29.06-.27.11-.46.38-.46.69v-3c0-.21-.08-.39-.22-.53s-.32-.22-.53-.22c-.31 0-.58.19-.69.46-.04.09-.06.19-.06.29v5.25l-.72-.72a.754.754 0 0 0-1.06 0c-.29.29-.29.77 0 1.06l1.63 1.63.53.53c.28.31.67.5 1.11.5h3c.83 0 1.5-.68 1.5-1.5V15.7c0-.17-.07-.33-.17-.45-.01-.03-.02-.06-.04-.08z"/><path class="st0" d="M-1474 8h-6c-1.1 0-2 .9-2 2v4c0 .39.12.75.31 1.06.13-.03.27-.05.41-.05.08 0 .17.01.25.02V11.7c0-.97.79-1.75 1.75-1.75s1.75.79 1.75 1.75v1.27c.39.06.73.24.99.5a1.72 1.72 0 0 1 1.5.5 1.752 1.752 0 0 1 2.01 1.73v.04c.61-.34 1.03-.99 1.03-1.74v-4c0-1.1-.9-2-2-2zM-1624.99 16V8h-1.01c-1.1 0-2 .9-2 2v4c0 1.1.9 2 2 2h1.01z"/><path class="st0" d="M-1619 18h-1.5c-.28 0-.5-.22-.5-.5v-11c0-.28.22-.5.5-.5h1.5c.55 0 1-.45 1-1s-.45-1-1-1h-6c-.55 0-1 .45-1 1s.45 1 1 1h1.5c.28 0 .5.22.5.5v11c0 .28-.22.5-.5.5h-1.5c-.55 0-1 .45-1 1s.45 1 1 1h6c.55 0 1-.45 1-1s-.45-1-1-1z"/><path class="st0" d="M-1606 8h-13.01v8h13.01c1.1 0 2-.9 2-2v-4c0-1.1-.9-2-2-2zm-6.4 4.83l-1.66 1.66c-.46.46-1.2.46-1.66 0-.18-.18-.27-.42-.31-.66h-.03v-3.48a1.17 1.17 0 0 1 2-.83l1.66 1.66c.46.45.46 1.19 0 1.65zm6.06 0l-1.66 1.66c-.46.46-1.2.46-1.66 0-.18-.18-.27-.42-.31-.66h-.03v-3.48a1.17 1.17 0 0 1 2-.83l1.66 1.66c.45.45.45 1.19 0 1.65zM-1311 18h-1.5c-.28 0-.5-.22-.5-.5v-11c0-.28.22-.5.5-.5h1.5c.55 0 1-.45 1-1s-.45-1-1-1h-6c-.55 0-1 .45-1 1s.45 1 1 1h1.5c.28 0 .5.22.5.5v11c0 .28-.22.5-.5.5h-1.5c-.55 0-1 .45-1 1s.45 1 1 1h6c.55 0 1-.45 1-1s-.45-1-1-1z"/><path class="st0" d="M-1316.99 16V8h-1.01c-1.1 0-2 .9-2 2v4c0 1.1.9 2 2 2h1.01zM-1298 8h-13.01v8h13.01c1.1 0 2-.9 2-2v-4c0-1.1-.9-2-2-2zm-8 6c-1.1 0-2-.9-2-2s.9-2 2-2 2 .9 2 2-.9 2-2 2zm6 0c-1.1 0-2-.9-2-2s.9-2 2-2 2 .9 2 2-.9 2-2 2zM-1256 0h-16c-2.2 0-4 1.8-4 4v16c0 2.2 1.8 4 4 4h16c2.2 0 4-1.8 4-4V4c0-2.2-1.8-4-4-4zm-9 20c0 1.1-.9 2-2 2h-5c-1.1 0-2-.9-2-2v-2c0-1.1.9-2 2-2h5c1.1 0 2 .9 2 2v2zm0-8c0 1.1-.9 2-2 2h-5c-1.1 0-2-.9-2-2v-2c0-1.1.9-2 2-2h5c1.1 0 2 .9 2 2v2zm11 8c0 1.1-.9 2-2 2h-5c-1.1 0-2-.9-2-2v-2c0-1.1.9-2 2-2h5c1.1 0 2 .9 2 2v2zm0-8c0 1.1-.9 2-2 2h-5c-1.1 0-2-.9-2-2v-2c0-1.1.9-2 2-2h5c1.1 0 2 .9 2 2v2zm-2-6h-16c-1.1 0-2-.9-2-2s.9-2 2-2h16c1.1 0 2 .9 2 2s-.9 2-2 2zM-1755 20c-.55 0-1-.45-1-1s.45-1 1-1h9.35c-.01-.26 0-.52.08-.78l.35-1.22h-9.78c-.55 0-1-.45-1-1s.45-1 1-1h10.35l.81-2.82c.13-.46.39-.86.73-1.18H-1756c-2.2 0-4 1.8-4 4v6c0 2.2 1.8 4 4 4h12.29c-.01-.16-.02-.31.01-.49l.41-3.26c-.38 0-.74-.09-1.07-.25H-1755zM-1756 8h16c2.2 0 4-1.8 4-4s-1.8-4-4-4h-16c-2.2 0-4 1.8-4 4s1.8 4 4 4zm10.69-5.66c.18-.18.42-.27.66-.31V2h3.48a1.17 1.17 0 0 1 .83 2l-1.66 1.66c-.46.46-1.2.46-1.66 0l-1.66-1.66c-.45-.46-.45-1.2.01-1.66z"/><path class="st0" d="M-1736.28 16.25h-2.43c-.27 0-.44-.22-.36-.48l1.15-4.04c.08-.26-.09-.48-.36-.48h-3c-.28 0-.56.22-.64.48l-1.73 6.04c-.08.26.09.48.36.48h1.75c.27 0 .47.22.44.5l-.63 5.01c-.03.27.07.32.24.1l5.4-7.2c.17-.23.08-.41-.19-.41zM-1124 0h-16c-2.2 0-4 1.8-4 4v16c0 2.2 1.8 4 4 4h16c2.2 0 4-1.8 4-4V4c0-2.2-1.8-4-4-4zm-10.29 20.29c.39.39.39 1.03 0 1.42-.39.39-1.03.39-1.42 0l-1.29-1.29-1.29 1.29c-.39.39-1.03.39-1.42 0-.39-.39-.39-1.03 0-1.42l1.29-1.29-1.29-1.29c-.39-.39-.39-1.03 0-1.42.39-.39 1.03-.39 1.42 0l1.29 1.29 1.29-1.29c.39-.39 1.03-.39 1.42 0 .39.39.39 1.03 0 1.42l-1.29 1.29 1.29 1.29zm10-2.58l-3.96 3.98-.01.01a.996.996 0 0 1-1.41 0c-.02-.02-.03-.05-.05-.08l-1.98-1.96a.984.984 0 0 1 0-1.4c.39-.38 1.02-.38 1.41 0l1.33 1.31 3.27-3.29a.996.996 0 0 1 1.41 0c.38.4.38 1.04-.01 1.43zm.29-4.71c0 .55-.45 1-1 1h-14c-.55 0-1-.45-1-1V5c0-.55.45-1 1-1h14c.55 0 1 .45 1 1v8z"/><path class="st0" d="M-1127 6h-10c-.55 0-1 .45-1 1s.45 1 1 1h10c.55 0 1-.45 1-1s-.45-1-1-1zM-1127 10h-10c-.55 0-1 .45-1 1s.45 1 1 1h10c.55 0 1-.45 1-1s-.45-1-1-1zM-1046.99 8h-7.01c-1.1 0-2 .9-2 2v4c0 1.1.9 2 2 2h7.01V8zM-1034 8h-7.01v8h7.01c1.1 0 2-.9 2-2v-4c0-1.1-.9-2-2-2z"/><path class="st0" d="M-1041 18h-1.5c-.28 0-.5-.22-.5-.5v-11c0-.28.22-.5.5-.5h1.5c.55 0 1-.45 1-1s-.45-1-1-1h-6c-.55 0-1 .45-1 1s.45 1 1 1h1.5c.28 0 .5.22.5.5v11c0 .28-.22.5-.5.5h-1.5c-.55 0-1 .45-1 1s.45 1 1 1h6c.55 0 1-.45 1-1s-.45-1-1-1zM-992 0h-16c-2.2 0-4 1.8-4 4v16c0 2.2 1.8 4 4 4h16c2.2 0 4-1.8 4-4V4c0-2.2-1.8-4-4-4zm-9 20c0 1.1-.9 2-2 2h-5c-1.1 0-2-.9-2-2v-5c0-1.1.9-2 2-2h5c1.1 0 2 .9 2 2v5zm0-11c0 1.1-.9 2-2 2h-5c-1.1 0-2-.9-2-2V4c0-1.1.9-2 2-2h5c1.1 0 2 .9 2 2v5zm11 11c0 1.1-.9 2-2 2h-5c-1.1 0-2-.9-2-2v-5c0-1.1.9-2 2-2h5c1.1 0 2 .9 2 2v5zm0-11c0 1.1-.9 2-2 2h-5c-1.1 0-2-.9-2-2V4c0-1.1.9-2 2-2h5c1.1 0 2 .9 2 2v5z"/><g><circle class="st0" cx="-917" cy="7" r="3"/><path class="st0" d="M-899.78 16.25h-2.93c-.28 0-.44-.22-.36-.48l.58-2.02.71-2.5h-4l-.14.48-.86 3.02-1 3.5h2.25c.27 0 .47.22.44.5l-.69 5.5 6-8z"/><path class="st0" d="M-909.19 19.31c-.45-.6-.59-1.36-.38-2.09l1.73-6.04c.32-1.12 1.4-1.93 2.56-1.93h1.54l-.96-.96a.996.996 0 0 0-1.41 0l-7.42 7.42-3.4-3.4a.996.996 0 0 0-1.41 0l-3.65 3.65V4c0-1.1.9-2 2-2h16c1.1 0 2 .9 2 2v5.28c.65.07 1.23.39 1.63.91.18.24.3.51.37.79V4c0-2.2-1.8-4-4-4h-16c-2.2 0-4 1.8-4 4v16c0 2.2 1.8 4 4 4h12.29c-.01-.16-.02-.31.01-.49l.41-3.26c-.78 0-1.47-.35-1.91-.94z"/></g><g><path class="st0" d="M-1076.28 16.25h-2.43c-.28 0-.44-.22-.36-.48l1.15-4.04c.08-.26-.09-.48-.36-.48h-3c-.28 0-.56.22-.64.48l-1.73 6.04c-.08.26.09.48.36.48h1.75c.27 0 .47.22.44.5l-.05.39-.58 4.62c-.02.16.01.24.06.24.04 0 .1-.05.17-.14l5.4-7.2c.18-.23.09-.41-.18-.41z"/><path class="st0" d="M-1083.84 11.18c.32-1.12 1.4-1.93 2.56-1.93h3c.34 0 .67.08.97.21A5.977 5.977 0 0 0-1082 7.2c-.2 0-.39.04-.59.06A7.191 7.191 0 0 0-1088 4.8c-3.15 0-5.82 2.02-6.8 4.84-.14-.01-.27-.04-.4-.04a4.801 4.801 0 0 0 0 9.6h9.94c-.39-.58-.51-1.29-.31-1.98l1.73-6.04zm-2.16 1.32h-.5v3c0 .55-.45 1-1 1h-1c-.55 0-1-.45-1-1v-3h-.5a1.003 1.003 0 0 1-.71-1.71l2-2c.18-.18.43-.29.71-.29s.53.11.71.29l2 2a1.003 1.003 0 0 1-.71 1.71z"/></g><path class="st0" d="M-780.63.32c.35-.43.91-.43 1.26 0l1.63 2.02c.35.43 1.06.66 1.59.52l2.5-.67c.53-.14.99.19 1.02.74l.13 2.59c.03.55.47 1.16.99 1.36l2.42.93c.51.2.69.73.39 1.2l-1.41 2.17c-.3.46-.3 1.22 0 1.68l1.41 2.17c.3.46.13 1-.39 1.2l-2.42.93c-.51.2-.96.81-.99 1.36l-.13 2.59c-.03.55-.49.88-1.02.74l-2.5-.67c-.53-.14-1.25.09-1.59.52l-1.63 2.02c-.35.43-.91.43-1.26 0l-1.63-2.02c-.35-.43-1.06-.66-1.59-.52l-2.5.67c-.53.14-.99-.19-1.02-.74l-.13-2.59c-.03-.55-.47-1.16-.99-1.36l-2.42-.93c-.51-.2-.69-.73-.39-1.2l1.41-2.17c.3-.46.3-1.22 0-1.68l-1.41-2.17c-.3-.46-.13-1 .39-1.2l2.42-.93c.51-.2.96-.81.99-1.36l.13-2.59c.03-.55.49-.88 1.02-.74l2.5.67c.53.14 1.25-.09 1.59-.52l1.63-2.02z"/><g><path class="st0" d="M-2631.99 8.77c-.19-.08-.41-.11-.64-.11-.36 0-.66.09-.92.26s-.45.42-.59.75c-.08.2-.13.44-.17.71-.04.28-.05.59-.05.93 0 .27.02.51.05.74.03.23.08.44.16.63.14.35.35.62.62.81.27.2.58.29.93.29.3 0 .57-.07.82-.22s.45-.35.6-.62c.12-.22.21-.46.25-.73.05-.27.07-.59.07-.96 0-.69-.09-1.22-.26-1.6-.1-.22-.22-.4-.37-.54-.14-.16-.31-.27-.5-.34zm.12 3.47c-.05.27-.13.48-.25.62-.12.15-.28.22-.49.22a.6.6 0 0 1-.48-.21c-.12-.14-.2-.35-.25-.62a5.9 5.9 0 0 1-.08-1.05c0-.63.06-1.1.18-1.4.12-.3.33-.46.63-.46.21 0 .37.07.49.2.12.14.2.34.25.6.05.27.08.61.08 1.02-.01.45-.03.81-.08 1.08zM-2628.87 13.65c.08.09.2.14.34.14.31 0 .47-.23.47-.69V9.19c0-.16-.04-.29-.11-.39a.356.356 0 0 0-.29-.14c-.11 0-.18.02-.22.06-.04.04-.12.15-.25.33s-.27.34-.44.48-.39.28-.66.41c-.18.09-.31.16-.39.21-.07.05-.11.14-.11.26 0 .1.04.19.11.26s.16.11.25.11c.2 0 .59-.22 1.17-.67v3.11c.01.19.05.33.13.43z"/><path class="st0" d="M-2620 2h-1V.98c0-.54-.44-.98-.98-.98h-2.04c-.54 0-.98.44-.98.98V2h-6V.98c0-.54-.44-.98-.98-.98h-2.04c-.54 0-.98.44-.98.98V2h-1c-2.2 0-4 1.8-4 4v12c0 2.2 1.8 4 4 4h8.28a6.907 6.907 0 0 1-1.28-4c0-.7.11-1.37.29-2h-5.29c-1.1 0-2-.9-2-2V8c0-1.1.9-2 2-2h6c1.1 0 2 .9 2 2v4.26a6.987 6.987 0 0 1 4-1.26c2.55 0 4.78 1.37 6 3.41V6c0-2.2-1.8-4-4-4zm0 7c0 .55-.45 1-1 1h-2c-.55 0-1-.45-1-1V7c0-.55.45-1 1-1h2c.55 0 1 .45 1 1v2z"/><path class="st0" d="M-2622 12c-3.31 0-6 2.69-6 6a5.93 5.93 0 0 0 1.97 4.43l.01.01a5.542 5.542 0 0 0 .95.7c.02.01.05.03.07.04.15.09.3.16.45.24.04.02.07.03.1.05.14.07.29.12.44.18.05.02.09.04.14.05.14.05.29.09.44.12.06.01.11.03.17.04.15.03.3.05.45.07l.17.03c.21.02.42.03.64.03 3.31 0 6-2.69 6-6s-2.69-5.99-6-5.99zm2.5 6.05c0 .25-.2.45-.45.45h-2.11c-.25 0-.45-.2-.45-.45v-3.61c0-.25.2-.45.45-.45h.11c.25 0 .45.2.45.45v3.05h1.55c.25 0 .45.2.45.45v.11z"/></g><g><path class="st0" d="M-2235.27 10.11a.405.405 0 0 0-.56 0l-2.92 2.92-1.32-1.32a.405.405 0 0 0-.56 0l-.01.01c-.15.15-.15.4 0 .56l1.61 1.61c.15.15.4.15.56 0l3.21-3.21c.15-.16.15-.41-.01-.57z"/><path class="st0" d="M-2224 4h-16c-2.21 0-4 1.79-4 4v8c0 2.21 1.79 4 4 4h16c2.21 0 4-1.79 4-4V8c0-2.21-1.79-4-4-4zm-10 11c0 .55-.45 1-1 1h-6c-.55 0-1-.45-1-1V9c0-.55.45-1 1-1h6c.55 0 1 .45 1 1v6zm2-6.5c0-.08.02-.13.04-.18l.03-.03c.02-.02.04-.04.07-.04h.04c.05.01.11.03.17.09 0 0 .01 0 .01.01l.66.66a4.991 4.991 0 0 1 3.63-1.99c-.08.15-.14.31-.14.48v1.56c-.87.15-1.61.65-2.05 1.38l1.2 1.2c.09.1.12.18.1.25 0 0-.01 0-.01.01-.01.03-.04.05-.08.07-.04.02-.1.03-.17.03h-3a.5.5 0 0 1-.47-.33.467.467 0 0 1-.03-.17v-3zm4.91 8.27c-.01.01-.01.02-.02.03-.09.12-.23.2-.39.2h-3c-.27 0-.34-.16-.15-.35l.66-.66a4.959 4.959 0 0 1-1.99-3.63c.14.08.3.14.48.14h1.57c.15.87.65 1.61 1.38 2.05l1.2-1.2c.19-.19.35-.13.35.15v3c0 .1-.04.19-.09.27zm.44-6.12c-.06.06-.12.09-.17.09h-.04c-.03 0-.05-.02-.07-.04l-.03-.03a.4.4 0 0 1-.04-.18v-3c0-.22.15-.4.34-.47.05-.02.1-.03.16-.03h3c.08 0 .13.01.17.04.11.06.11.18-.03.32l-.67.67c1.11.84 1.87 2.13 1.98 3.61-.14-.07-.29-.13-.46-.13h-1.55c-.15-.87-.67-1.61-1.39-2.06l-1.2 1.2v.01zm4.65 4.85c0 .28-.16.34-.35.15l-.67-.67a4.969 4.969 0 0 1-3.61 1.99c.08-.14.13-.3.13-.46v-1.55c.87-.15 1.61-.67 2.06-1.39l-1.2-1.2c-.19-.19-.13-.35.15-.35h3c.1 0 .19.04.27.09.01.01.02.01.03.02.08.06.13.13.17.23.02.05.03.1.03.16v2.98z"/></g><path class="st0" d="M-1342 10h-4.35a5.99 5.99 0 0 0-11.3 0h-4.35c-1.1 0-2 .9-2 2s.9 2 2 2h4.35a5.99 5.99 0 0 0 11.3 0h4.35c1.1 0 2-.9 2-2s-.9-2-2-2zm-10 4c-1.1 0-2-.9-2-2s.9-2 2-2 2 .9 2 2-.9 2-2 2z"/><g><path class="st0" d="M-1652 0h-16c-2.2 0-4 1.8-4 4v16c0 2.2 1.8 4 4 4h16c2.2 0 4-1.8 4-4V4c0-2.2-1.8-4-4-4zm0 16c0 1.1-.9 2-2 2h-12c-1.1 0-2-.9-2-2V8c0-1.1.9-2 2-2h12c1.1 0 2 .9 2 2v8z"/><path class="st0" d="M-1656.06 10.89l-2.06-.3c-.28-.04-.61-.28-.73-.53l-.92-1.87c-.12-.25-.33-.25-.45 0l-.92 1.87c-.12.25-.45.49-.73.53l-2.06.3c-.28.04-.34.23-.14.43l1.49 1.45c.2.2.33.58.28.86l-.35 2.05c-.05.28.12.4.37.27l1.84-.97c.25-.13.65-.13.9 0l1.84.97c.25.13.41.01.37-.27l-.35-2.05c-.05-.28.08-.66.28-.86l1.49-1.45c.19-.19.12-.39-.15-.43z"/></g><g><path class="st0" d="M-1185.01 16.31v-8h-1.01c-1.1 0-2 .9-2 2v4c0 1.1.9 2 2 2h1.01z"/><path class="st0" d="M-1179.02 18.31h-1.5c-.28 0-.5-.22-.5-.5v-11c0-.28.22-.5.5-.5h1.5c.55 0 1-.45 1-1s-.45-1-1-1h-6c-.55 0-1 .45-1 1s.45 1 1 1h1.5c.28 0 .5.22.5.5v11c0 .28-.22.5-.5.5h-1.5c-.55 0-1 .45-1 1s.45 1 1 1h6c.55 0 1-.45 1-1 0-.56-.44-1-1-1z"/><path class="st0" d="M-1166.02 8.31h-13.01v8h5.7l.91-3.17-1.65 1.65c-.46.46-1.2.46-1.66 0-.18-.18-.27-.42-.31-.66h-.03v-3.48a1.17 1.17 0 0 1 2-.83l1.66 1.66c.17.17.26.38.3.6l.26-.9c.32-1.12 1.4-1.93 2.56-1.93h3c.76 0 1.46.34 1.91.94.18.24.3.51.37.79v-.67c-.01-1.1-.91-2-2.01-2z"/><path class="st0" d="M-1164.3 16.25h-2.43c-.28 0-.44-.22-.36-.48l1.15-4.04c.08-.26-.09-.48-.36-.48h-3c-.27 0-.56.22-.64.48l-1.73 6.04c-.08.26.09.48.36.48h1.75c.28 0 .47.22.44.5l-.63 5.01c-.03.27.07.32.24.1l5.4-7.2c.18-.23.09-.41-.19-.41z"/></g><g><path class="st0" d="M-736 0h-8c-2.2 0-4 1.8-4 4v16c0 2.2 1.8 4 4 4h8c2.2 0 4-1.8 4-4V4c0-2.2-1.8-4-4-4zm2 18.01c0 .55-.45.99-.99.99H-745c-.55 0-.99-.45-.99-.99V18c0-.55.45-.99.99-.99h10.01c.55 0 .99.45.99.99v.01zm0-6c0 .55-.45.99-.99.99H-745c-.55 0-.99-.45-.99-.99V12c0-.55.45-.99.99-.99h10.01c.55 0 .99.45.99.99v.01zm0-6c0 .55-.45.99-.99.99H-745c-.55 0-.99-.45-.99-.99v-.02c0-.55.45-.99.99-.99h10.01c.55 0 .99.45.99.99v.02zM-724.51 10.76L-727 8.27a1.756 1.756 0 0 0-3 1.24v5.23h.05c.05.36.19.71.46.99.69.69 1.8.69 2.49 0l2.49-2.49c.68-.68.68-1.8 0-2.48z"/></g><g><path class="st0" d="M-1436.99 16V8h-1.01c-1.1 0-2 .9-2 2v4c0 1.1.9 2 2 2h1.01zM-1430 8h-1.01v8h1.01c1.1 0 2-.9 2-2v-4c0-1.1-.9-2-2-2z"/><path class="st0" d="M-1431 18h-1.5c-.28 0-.5-.22-.5-.5v-11c0-.28.22-.5.5-.5h1.5c.55 0 1-.45 1-1s-.45-1-1-1h-6c-.55 0-1 .45-1 1s.45 1 1 1h1.5c.28 0 .5.22.5.5v11c0 .28-.22.5-.5.5h-1.5c-.55 0-1 .45-1 1s.45 1 1 1h6c.55 0 1-.45 1-1s-.45-1-1-1zM-1442.37 11.51l-.59-.33c-.48-.27-.75-.93-.6-1.46l.18-.65c.15-.53-.17-.84-.7-.7l-.65.18c-.53.15-1.19-.12-1.46-.6l-.33-.59c-.27-.48-.71-.48-.99 0l-.33.59c-.27.48-.93.75-1.46.6l-.65-.18c-.53-.15-.84.17-.7.7l.18.65c.15.53-.12 1.19-.6 1.46l-.59.33c-.48.27-.48.71 0 .99l.59.33c.48.27.75.93.6 1.46l-.18.65c-.15.53.17.84.7.7l.65-.18c.53-.15 1.19.12 1.46.6l.33.59c.27.48.71.48.99 0l.33-.59c.27-.48.93-.75 1.46-.6l.65.18c.53.15.84-.17.7-.7l-.18-.65c-.15-.53.12-1.19.6-1.46l.59-.33c.48-.28.48-.72 0-.99z"/></g><g><path class="st0" d="M-2408 0c-6.63 0-12 5.37-12 12s5.37 12 12 12 12-5.37 12-12-5.37-12-12-12zm0 20c-4.41 0-8-3.59-8-8s3.59-8 8-8 8 3.59 8 8-3.59 8-8 8z"/><circle class="st0" cx="-2408" cy="12" r="4"/></g><g><path class="st0" d="M-831 0h-4c-.55 0-1 .45-1 1v4c0 .55.45 1 1 1h4c.55 0 1-.45 1-1V1c0-.55-.45-1-1-1zM-831 9h-4c-.55 0-1 .45-1 1v4c0 .55.45 1 1 1h4c.55 0 1-.45 1-1v-4c0-.55-.45-1-1-1zM-831 18h-4c-.55 0-1 .45-1 1v4c0 .55.45 1 1 1h4c.55 0 1-.45 1-1v-4c0-.55-.45-1-1-1zM-813 0h-4c-.55 0-1 .45-1 1v4c0 .55.45 1 1 1h4c.55 0 1-.45 1-1V1c0-.55-.45-1-1-1zM-813 9h-4c-.55 0-1 .45-1 1v4c0 .55.45 1 1 1h4c.55 0 1-.45 1-1v-4c0-.55-.45-1-1-1zM-813 18h-4c-.55 0-1 .45-1 1v4c0 .55.45 1 1 1h4c.55 0 1-.45 1-1v-4c0-.55-.45-1-1-1zM-822 0h-4c-.55 0-1 .45-1 1v4c0 .55.45 1 1 1h4c.55 0 1-.45 1-1V1c0-.55-.45-1-1-1zM-822 9h-4c-.55 0-1 .45-1 1v4c0 .55.45 1 1 1h4c.55 0 1-.45 1-1v-4c0-.55-.45-1-1-1zM-822 18h-4c-.55 0-1 .45-1 1v4c0 .55.45 1 1 1h4c.55 0 1-.45 1-1v-4c0-.55-.45-1-1-1z"/></g><g><path class="st0" d="M-1214 4h-2c0-2.21-1.79-4-4-4s-4 1.79-4 4h-2c-2.2 0-4 1.8-4 4v12c0 2.2 1.8 4 4 4h12c2.2 0 4-1.8 4-4V8c0-2.2-1.8-4-4-4zm-6-2c1.1 0 2 .9 2 2h-4c0-1.1.9-2 2-2zm8 18c0 1.1-.9 2-2 2h-12c-1.1 0-2-.9-2-2V8c0-1.1.9-2 2-2h2v1.05c0 .52.43.95.95.95h6.11c.52 0 .95-.43.95-.95V6h2c1.1 0 2 .9 2 2v12z"/><path class="st0" d="M-1215 10h-10c-.55 0-1 .45-1 1s.45 1 1 1h10c.55 0 1-.45 1-1s-.45-1-1-1zM-1215 14h-10c-.55 0-1 .45-1 1s.45 1 1 1h10c.55 0 1-.45 1-1s-.45-1-1-1zM-1215 18h-10c-.55 0-1 .45-1 1s.45 1 1 1h10c.55 0 1-.45 1-1s-.45-1-1-1z"/></g><g><path class="st0" d="M-2096 6h-8c-.55 0-1 .45-1 1v2c0 .55.45 1 1 1h8c.55 0 1-.45 1-1V7c0-.55-.45-1-1-1z"/><path class="st0" d="M-2092 0h-16c-2.2 0-4 1.8-4 4v16c0 2.2 1.8 4 4 4h16c2.2 0 4-1.8 4-4V4c0-2.2-1.8-4-4-4zm.45 8.89l1.11 2.21c.25.49 0 .89-.55.89h-18c-.55 0-.8-.4-.55-.89l1.11-2.21c.25-.49.25-1.3 0-1.79l-1.11-2.21c-.25-.49 0-.89.55-.89h18c.55 0 .8.4.55.89l-1.11 2.21c-.25.5-.25 1.3 0 1.79z"/></g><path class="st0" d="M-2005 15h4c.55 0 1-.45 1-1v-4c0-.55-.45-1-1-1h-4c-.55 0-1 .45-1 1v1h-12V4h4v1c0 .55.45 1 1 1h4c.55 0 1-.45 1-1V1c0-.55-.45-1-1-1h-4c-.55 0-1 .45-1 1v1h-9c-.55 0-1 .45-1 1s.45 1 1 1h3v17c0 .55.45 1 1 1h13v1c0 .55.45 1 1 1h4c.55 0 1-.45 1-1v-4c0-.55-.45-1-1-1h-4c-.55 0-1 .45-1 1v1h-12v-7h12v1c0 .55.45 1 1 1zM-639.96 0h-16.09c-2.2 0-4 1.8-4 4v16c0 2.2 1.8 4 4 4h16.09c2.2 0 4-1.8 4-4V4c0-2.2-1.8-4-4-4zm-15 19c-.55 0-1-.45-1-1s.45-1 1-1 1 .45 1 1-.44 1-1 1zm0-6c-.55 0-1-.45-1-1s.45-1 1-1 1 .45 1 1-.44 1-1 1zm0-6c-.55 0-1-.45-1-1s.45-1 1-1 1 .45 1 1-.44 1-1 1zm15 11.01c0 .55-.45.99-.99.99h-10.01c-.55 0-.99-.45-.99-.99V18c0-.55.45-.99.99-.99h10.01c.55 0 .99.45.99.99v.01zm0-6c0 .55-.45.99-.99.99h-10.01c-.55 0-.99-.45-.99-.99V12c0-.55.45-.99.99-.99h10.01c.55 0 .99.45.99.99v.01zm0-6c0 .55-.45.99-.99.99h-10.01c-.55 0-.99-.45-.99-.99v-.02c0-.55.45-.99.99-.99h10.01c.55 0 .99.45.99.99v.02zM-595.96 0h-16.09c-2.2 0-4 1.8-4 4v16c0 2.2 1.8 4 4 4h16.09c2.2 0 4-1.8 4-4V4c0-2.2-1.8-4-4-4zm-16.29 4.89c.06-.05.17-.11.33-.18.24-.11.42-.23.57-.35s.27-.26.38-.41.18-.25.21-.28.1-.05.19-.05c.1 0 .19.04.25.12s.09.19.09.33v3.35c0 .39-.13.59-.4.59-.12 0-.21-.04-.29-.12s-.11-.2-.11-.35V4.86c-.5.38-.83.57-1 .57-.08 0-.16-.03-.22-.1s-.09-.14-.09-.23c-.01-.09.03-.17.09-.21zm2.66 14.26c-.07.17-.18.31-.31.44s-.3.23-.49.3c-.19.07-.4.11-.63.11-.23 0-.44-.04-.63-.13a1.448 1.448 0 0 1-.73-.71.863.863 0 0 1-.09-.33c0-.11.04-.21.11-.27.07-.07.17-.1.27-.1.05 0 .11.02.16.05s.08.07.1.12c.1.27.21.47.33.6.12.13.28.2.49.2.12 0 .24-.03.35-.09s.21-.15.28-.26c.07-.12.11-.25.11-.41 0-.23-.06-.41-.19-.54s-.3-.19-.52-.19c-.04 0-.1 0-.18.01s-.13.01-.16.01c-.11 0-.19-.03-.25-.08s-.09-.13-.09-.22.04-.17.11-.23.17-.09.31-.09h.12c.18 0 .33-.05.46-.16s.2-.26.2-.45a.55.55 0 0 0-.58-.55c-.12 0-.22.02-.29.05s-.14.08-.18.13-.09.12-.13.21-.08.17-.11.24c-.02.04-.05.07-.11.1s-.11.04-.18.04c-.08 0-.15-.03-.21-.1a.317.317 0 0 1-.1-.25c0-.1.03-.21.09-.32.06-.11.15-.22.27-.32.12-.1.26-.18.44-.25s.37-.09.59-.09c.19 0 .36.03.52.08s.29.13.41.22.2.21.26.34.09.27.09.42c0 .2-.04.36-.13.5-.08.14-.21.28-.36.41.15.08.28.18.39.28.1.11.18.22.24.35s.08.27.08.42c-.02.17-.06.34-.13.51zm.03-5.25c-.06.07-.16.1-.29.1H-612c-.15 0-.26-.04-.34-.12s-.12-.18-.12-.29c0-.07.03-.16.08-.28s.11-.21.17-.27c.26-.27.49-.5.7-.69s.36-.32.45-.38c.16-.11.29-.23.4-.34.11-.11.19-.23.24-.35.06-.12.08-.24.08-.35 0-.12-.03-.24-.09-.34s-.14-.18-.24-.23a.742.742 0 0 0-.34-.08.66.66 0 0 0-.6.34c-.02.03-.05.11-.1.24s-.1.23-.16.3-.14.11-.25.11c-.1 0-.18-.03-.24-.1s-.1-.15-.1-.26c0-.13.03-.28.09-.42s.15-.28.27-.4c.12-.12.27-.22.46-.29.18-.07.4-.11.65-.11.3 0 .55.05.76.14.14.06.26.15.36.26s.18.24.24.38.09.29.09.45c0 .24-.06.46-.18.66s-.24.35-.37.47-.33.29-.63.53c-.29.24-.5.43-.61.56-.05.05-.09.12-.14.19h1.53c.15 0 .27.03.35.09s.12.15.12.25c.01.08-.02.16-.09.23zm13.6 4.11c0 .55-.45.99-.99.99h-10.01c-.55 0-.99-.45-.99-.99V18c0-.55.45-.99.99-.99h10.01c.55 0 .99.45.99.99v.01zm0-6c0 .55-.45.99-.99.99h-10.01c-.55 0-.99-.45-.99-.99V12c0-.55.45-.99.99-.99h10.01c.55 0 .99.45.99.99v.01zm0-6c0 .55-.45.99-.99.99h-10.01c-.55 0-.99-.45-.99-.99v-.02c0-.55.45-.99.99-.99h10.01c.55 0 .99.45.99.99v.02z"/><g><path class="st0" d="M-551.96 0h-16.09c-2.2 0-4 1.8-4 4v16c0 2.2 1.8 4 4 4h16.09c2.2 0 4-1.8 4-4V4c0-2.2-1.8-4-4-4zm-15 5c.55 0 1 .45 1 1s-.45 1-1 1-1-.45-1-1 .45-1 1-1zM-552 18.01c0 .55-.45 1-1 1h-14c-.55 0-1-.45-1-1V9.99c0-.55.45-1 1-1h14c.55 0 1 .45 1 1v8.02zm.04-12c0 .55-.45.99-.99.99h-10.01c-.55 0-.99-.45-.99-.99v-.02c0-.55.45-.99.99-.99h10.01c.55 0 .99.45.99.99v.02z"/><path class="st0" d="M-561.01 13h5.98c.55 0 .99-.45.99-.99V12c0-.55-.45-.99-.99-.99h-5.98c-.55 0-.99.45-.99.99v.01c0 .54.45.99.99.99zM-554.99 15h-5.98c-.55 0-.99.45-.99.99V16c0 .55.45.99.99.99h5.98c.55 0 .99-.45.99-.99v-.01c0-.54-.45-.99-.99-.99z"/><circle class="st0" cx="-565" cy="12" r="1"/><circle class="st0" cx="-565" cy="16" r="1"/></g><g><path class="st0" d="M-507.96 0h-16.09c-2.2 0-4 1.8-4 4v16c0 2.2 1.8 4 4 4h16.09c2.2 0 4-1.8 4-4V4c0-2.2-1.8-4-4-4zm-16.29 5.33a.334.334 0 0 1-.09-.23c0-.1.03-.17.09-.22s.17-.11.33-.18c.24-.11.43-.23.57-.35.14-.12.27-.26.38-.41s.18-.25.21-.28.1-.05.19-.05c.1 0 .19.04.25.12s.09.19.09.33v3.35c0 .39-.13.59-.4.59-.12 0-.21-.04-.29-.12s-.11-.2-.11-.35V4.86c-.5.38-.83.57-1 .57a.27.27 0 0 1-.22-.1zM-508 18.01c0 .55-.45 1-1 1h-14c-.55 0-1-.45-1-1V9.99c0-.55.45-1 1-1h14c.55 0 1 .45 1 1v8.02zm.04-12c0 .55-.45.99-.99.99h-10.01c-.55 0-.99-.45-.99-.99v-.02c0-.55.45-.99.99-.99h10.01c.55 0 .99.45.99.99v.02z"/><path class="st0" d="M-517.01 13h5.98c.55 0 .99-.45.99-.99V12c0-.55-.45-.99-.99-.99h-5.98c-.55 0-.99.45-.99.99v.01c0 .54.45.99.99.99zM-510.99 15h-5.98c-.55 0-.99.45-.99.99V16c0 .55.45.99.99.99h5.98c.55 0 .99-.45.99-.99v-.01c0-.54-.45-.99-.99-.99zM-521.7 11.69c.11 0 .34-.13.67-.38v1.78c0 .1.02.18.07.24.05.05.11.08.19.08.18 0 .27-.13.27-.39v-2.24c0-.09-.02-.17-.06-.22s-.1-.08-.17-.08c-.06 0-.1.01-.12.04s-.07.09-.14.19-.16.19-.25.28-.22.16-.38.23c-.11.05-.18.09-.22.12s-.06.08-.06.15c0 .06.02.11.06.15s.08.05.14.05zM-520.3 16.87h-1.02c.03-.05.06-.09.1-.13.07-.09.21-.21.4-.37s.34-.28.42-.35c.08-.08.17-.18.25-.31a.83.83 0 0 0-.1-.99.807.807 0 0 0-.24-.17c-.14-.06-.31-.09-.51-.09-.17 0-.31.02-.43.07s-.22.11-.3.19c-.08.08-.14.17-.18.27s-.06.19-.06.28c0 .07.02.13.06.18s.1.06.16.06c.07 0 .13-.02.17-.07s.07-.11.1-.2c.03-.09.05-.14.07-.16.1-.15.23-.22.4-.22.08 0 .16.02.22.05.07.04.12.09.16.15.04.07.06.14.06.22 0 .08-.02.16-.06.24s-.09.16-.16.23-.16.15-.27.23c-.06.04-.16.12-.3.25-.14.13-.3.28-.47.46-.04.04-.08.1-.12.18-.04.08-.05.14-.05.19 0 .07.03.14.08.19.05.05.13.08.23.08h1.44c.09 0 .15-.02.19-.07.04-.04.06-.1.06-.16 0-.07-.03-.13-.08-.17-.04-.04-.12-.06-.22-.06z"/></g><g><path class="st0" d="M-688 6h-8c-.55 0-1 .45-1 1v2c0 .55.45 1 1 1h8c.55 0 1-.45 1-1V7c0-.55-.45-1-1-1z"/><path class="st0" d="M-684 0h-16c-2.2 0-4 1.8-4 4v16c0 2.2 1.8 4 4 4h16c2.2 0 4-1.8 4-4V4c0-2.2-1.8-4-4-4zm0 19c0 .55-.45 1-1 1h-14c-.55 0-1-.45-1-1v-4c0-.55.45-1 1-1h14c.55 0 1 .45 1 1v4zm.45-10.11l1.11 2.21c.25.49 0 .89-.55.89h-18c-.55 0-.8-.4-.55-.89l1.11-2.21c.25-.49.25-1.3 0-1.79l-1.11-2.21c-.26-.49-.01-.89.54-.89h18c.55 0 .8.4.55.89l-1.11 2.21c-.24.5-.24 1.3.01 1.79z"/><path class="st0" d="M-687 16h-10c-.55 0-1 .45-1 1s.45 1 1 1h10c.55 0 1-.45 1-1s-.45-1-1-1z"/></g><path class="st0" d="M-469 18h-1.5c-.28 0-.5-.22-.5-.5v-11c0-.28.22-.5.5-.5h1.5c.55 0 1-.45 1-1s-.45-1-1-1h-6c-.55 0-1 .45-1 1s.45 1 1 1h1.5c.28 0 .5.22.5.5v11c0 .28-.22.5-.5.5h-1.5c-.55 0-1 .45-1 1s.45 1 1 1h6c.55 0 1-.45 1-1s-.45-1-1-1z"/><g><path class="st0" d="M-2748.28 16.25h-2.43c-.27 0-.44-.22-.36-.48l1.15-4.04c.02-.07.02-.13.01-.19a.364.364 0 0 0-.19-.26.478.478 0 0 0-.18-.04h-3c-.28 0-.56.22-.64.48l-1.73 6.04c-.08.26.09.48.36.48h1.75c.27 0 .47.22.44.5l-.63 5.01c-.03.27.07.32.24.1l5.4-7.2c.17-.22.08-.4-.19-.4zM-2763 4h-7c-1.1 0-2 .9-2 2v4c0 1.1.9 2 2 2h7c1.1 0 2-.9 2-2V6c0-1.1-.9-2-2-2zm-1.01 4l-1.66 1.66c-.46.46-1.2.46-1.66 0l-1.66-1.66a1.17 1.17 0 0 1 0-1.66c.18-.18.42-.27.66-.31V6h3.48c.3 0 .6.11.83.34.46.46.46 1.2.01 1.66z"/><path class="st0" d="M-2750 4h-7c-1.1 0-2 .9-2 2v4c0 1.1.9 2 2 2h.92l.23-.82c.21-.72.73-1.32 1.39-1.65l-1.54-1.54a1.17 1.17 0 0 1 0-1.66c.18-.18.42-.27.66-.31V6h3.48a1.17 1.17 0 0 1 .83 2l-1.25 1.25h1.98a2.364 2.364 0 0 1 2.17 1.38c.07-.2.11-.41.11-.63V6c.02-1.1-.88-2-1.98-2z"/></g><path class="st0" d="M-946 8h-20c-1.1 0-2 .9-2 2v4c0 1.1.9 2 2 2h20c1.1 0 2-.9 2-2v-4c0-1.1-.9-2-2-2zm-8 6h-10c-1.1 0-2-.9-2-2s.9-2 2-2h10c1.1 0 2 .9 2 2s-.9 2-2 2zm7.79-1.19c.27.27.27.72 0 .99s-.72.27-.99 0l-.8-.8-.8.8c-.27.27-.72.27-.99 0s-.27-.72 0-.99l.8-.8-.8-.8a.706.706 0 0 1 0-.99c.27-.27.72-.27.99 0l.8.8.8-.8c.27-.27.72-.27.99 0s.27.72 0 .99l-.8.8.8.8zM-2364 0c-6.63 0-12 5.37-12 12s5.37 12 12 12 12-5.37 12-12-5.37-12-12-12zm-3 7.8c0-1.15.71-2.15 1.7-2.57a1.867 1.867 0 0 1 1.29-3.22c1.03 0 1.87.84 1.87 1.87 0 .53-.22 1.01-.58 1.35 1 .43 1.7 1.42 1.7 2.57v.5c0 .39-.32.7-.7.7h-4.6c-.39 0-.7-.32-.7-.7v-.5zm-5.5 4.2c0-3.02 1.63-5.83 4.25-7.35.24-.14.54-.06.68.18s.06.54-.18.68a7.526 7.526 0 0 0-3.75 6.49c0 .28-.22.5-.5.5s-.5-.22-.5-.5zm6.5 6.3c0 .39-.31.7-.7.7h-4.6c-.39 0-.7-.32-.7-.7v-.5c0-1.15.71-2.15 1.7-2.57a1.867 1.867 0 0 1 1.29-3.22 1.867 1.867 0 0 1 1.29 3.22c1 .43 1.7 1.42 1.7 2.57v.5zm3.07 2.13c-.36.05-.72.07-1.07.07-.34 0-.7-.02-1.06-.07a.503.503 0 0 1-.43-.56c.04-.28.29-.47.56-.43.61.08 1.26.08 1.87 0 .27-.04.53.16.56.43a.51.51 0 0 1-.43.56zm6.93-2.13c0 .39-.31.7-.7.7h-4.6c-.39 0-.7-.32-.7-.7v-.5c0-1.15.71-2.15 1.7-2.57a1.867 1.867 0 0 1 1.29-3.22 1.867 1.867 0 0 1 1.29 3.22c1 .43 1.7 1.42 1.7 2.57v.5zm0-5.8c-.28 0-.5-.22-.5-.5 0-2.66-1.44-5.15-3.75-6.49a.493.493 0 0 1-.18-.68c.14-.24.45-.32.68-.18a8.525 8.525 0 0 1 4.25 7.35c0 .28-.22.5-.5.5z"/><g><path class="st0" d="M-420 0h-16c-2.2 0-4 1.8-4 4v16c0 2.2 1.8 4 4 4h16c2.2 0 4-1.8 4-4V4c0-2.2-1.8-4-4-4zm0 18c0 1.1-.9 2-2 2h-12c-1.1 0-2-.9-2-2V6c0-1.1.9-2 2-2h12c1.1 0 2 .9 2 2v12z"/><path class="st0" d="M-427.35 8.24c-.21 0-.35.07-.43.2-.06.11-.13.3-.2.58l-1.23 5.07c-.06.27-.09.45-.09.53 0 .18.07.49.55.49.14 0 .26-.04.34-.11.08-.07.13-.16.17-.27.03-.1.07-.23.11-.4l1.23-5.07c.06-.25.09-.42.09-.52 0-.15-.05-.28-.15-.36-.09-.1-.22-.14-.39-.14zM-430.14 9.5l-3.5 1.52a.83.83 0 0 0-.46.7v.06c0 .27.21.59.46.7l3.5 1.52c.25.11.46-.03.46-.3v-.24a.78.78 0 0 0-.47-.68l-2.15-.85c-.26-.1-.26-.26 0-.36l2.15-.83c.26-.1.47-.4.47-.68v-.25c0-.28-.2-.42-.46-.31zM-422.36 11.03l-3.5-1.51c-.25-.11-.46.03-.46.3v.23c0 .27.21.58.47.68l2.16.83c.26.1.26.26 0 .36l-2.16.85c-.26.1-.47.41-.47.68v.24c0 .27.21.41.46.3l3.5-1.53a.83.83 0 0 0 .46-.7v-.05c0-.26-.21-.57-.46-.68z"/></g><g><path class="st0" d="M-380 10h6c1.1 0 2-.9 2-2V2c0-1.1-.9-2-2-2h-6c-1.1 0-2 .9-2 2v6c0 1.1.9 2 2 2zm1-8h4c.55 0 1 .45 1 1s-.45 1-1 1h-4c-.55 0-1-.45-1-1s.45-1 1-1zm0 4h4c.55 0 1 .45 1 1s-.45 1-1 1h-4c-.55 0-1-.45-1-1s.45-1 1-1zM-374.88 19l2.44-2.44c.59-.59.59-1.54 0-2.12a1.49 1.49 0 0 0-2.12 0l-2.44 2.44-2.44-2.44a1.49 1.49 0 0 0-2.12 0 1.49 1.49 0 0 0 0 2.12l2.44 2.44-2.44 2.44a1.49 1.49 0 0 0 0 2.12c.59.59 1.54.59 2.12 0l2.44-2.44 2.44 2.44c.59.59 1.54.59 2.12 0 .59-.59.59-1.54 0-2.12l-2.44-2.44zM-395.66 9.97l2.23-.74c.26-.09.63-.32.83-.51l6.3-6.3a.996.996 0 0 0 0-1.41l-.7-.71c-.39-.39-1.03-.39-1.42 0l-6.3 6.3c-.19.19-.42.57-.51.83l-.74 2.23c-.09.26.05.4.31.31zM-389 15c-.55 0-1 .45-1 1s.45 1 1 1 1 .45 1 1v3c0 .55-.45 1-1 1h-4c-.55 0-1-.45-1-1v-3c0-.55.45-1 1-1v.24c0 .48.2.76.49.76.12 0 .25-.05.39-.14.48-.34 1.27-.89 1.76-1.23.48-.34.48-.89 0-1.23-.48-.34-1.27-.89-1.76-1.23a.666.666 0 0 0-.39-.14c-.29 0-.49.28-.49.76v.23c-1.66 0-3 1.34-3 3v3c0 1.66 1.34 3 3 3h4c1.66 0 3-1.34 3-3v-3a3 3 0 0 0-3-3.02z"/></g><g><path class="st0" d="M-332.44 8.44a1.49 1.49 0 0 0-2.12 0l-2.44 2.44-2.44-2.44a1.49 1.49 0 0 0-2.12 0 1.49 1.49 0 0 0 0 2.12l2.44 2.44-2.44 2.44a1.49 1.49 0 0 0 0 2.12c.59.59 1.54.59 2.12 0l2.44-2.44 2.44 2.44c.59.59 1.54.59 2.12 0 .59-.59.59-1.54 0-2.12l-2.44-2.44 2.44-2.44c.59-.59.59-1.53 0-2.12zM-344 8.49c0-.27-.22-.49-.5-.49h-3.01a.5.5 0 0 0-.5.49V9c0 .27.22.49.5.49h3.01A.5.5 0 0 0-344 9v-.51z"/><path class="st0" d="M-332 2h-3c-.55 0-1 .45-1 1s.45 1 1 1h3c1.1 0 2 .9 2 2v14c0 1.1-.9 2-2 2h-16c-1.1 0-2-.9-2-2V6c0-1.1.9-2 2-2h6v1.4c0 .49.51.77.87.48l2.91-2.4c.29-.24.29-.72 0-.96l-2.91-2.4c-.36-.3-.87-.01-.87.48V2h-6c-2.2 0-4 1.8-4 4v14c0 2.2 1.8 4 4 4h16c2.2 0 4-1.8 4-4V6c0-2.2-1.8-4-4-4z"/><path class="st0" d="M-344.51 10h-2.98c-.28 0-.51.23-.51.51v4.29c0 .39.12.78.34 1.11l1.24 1.86c.2.3.65.3.85 0l1.24-1.86c.22-.33.34-.71.34-1.11v-4.29a.528.528 0 0 0-.52-.51z"/></g><g><path class="st0" d="M-288 0h-16c-2.21 0-4 1.79-4 4v16c0 2.21 1.79 4 4 4h16c2.21 0 4-1.79 4-4V4c0-2.21-1.79-4-4-4zm2 20c0 1.1-.9 2-2 2h-16c-1.1 0-2-.9-2-2V4c0-1.1.9-2 2-2h16c1.1 0 2 .9 2 2v16z"/><path class="st0" d="M-288.5 4h-3.01a.5.5 0 0 0-.5.49V5c0 .27.22.49.5.49h3.01A.5.5 0 0 0-288 5v-.51c0-.27-.22-.49-.5-.49zM-288.51 6h-2.98c-.28 0-.51.23-.51.51v6.29c0 .39.12.78.34 1.11l1.24 1.86c.2.3.65.3.85 0l1.24-1.86c.22-.33.34-.71.34-1.11V6.51a.528.528 0 0 0-.52-.51zM-290 18h-11c-.55 0-1-.45-1-1s.45-1 1-1h4c1.65 0 3-1.34 3-3s-1.35-3-3-3h-2c-.55 0-1 .45-1 1s.45 1 1 1h2c.55 0 1 .45 1 1s-.45 1-1 1h-4c-1.66 0-3 1.35-3 3s1.34 3 3 3h11c.55 0 1-.45 1-1s-.45-1-1-1z"/></g><g><path class="st0" d="M-262 0h4c1.1 0 2 .9 2 2v20c0 1.1-.9 2-2 2h-4c-1.1 0-2-.9-2-2V2c0-1.1.9-2 2-2zM-252 24h10c1.1 0 2-.9 2-2V2c0-1.1-.9-2-2-2h-10c-1.1 0-2 .9-2 2v20c0 1.1.9 2 2 2z"/></g><path class="st0" d="M-198 0h-4c-1.1 0-2 .9-2 2v20c0 1.1.9 2 2 2h4c1.1 0 2-.9 2-2V2c0-1.1-.9-2-2-2zM-208 24h-10c-1.1 0-2-.9-2-2V2c0-1.1.9-2 2-2h10c1.1 0 2 .9 2 2v20c0 1.1-.9 2-2 2zM-154 24h-20c-1.1 0-2-.9-2-2V2c0-1.1.9-2 2-2h20c1.1 0 2 .9 2 2v20c0 1.1-.9 2-2 2zM-123 24h-7c-1.1 0-2-.9-2-2V2c0-1.1.9-2 2-2h7c1.1 0 2 .9 2 2v20c0 1.1-.9 2-2 2zM-110 24h-7c-1.1 0-2-.9-2-2V2c0-1.1.9-2 2-2h7c1.1 0 2 .9 2 2v20c0 1.1-.9 2-2 2zM-86 24c-1.1 0-2-.9-2-2V2c0-1.1.9-2 2-2s2 .9 2 2v20c0 1.1-.9 2-2 2zM-66 0c-1.1 0-2 .9-2 2v20c0 1.1.9 2 2 2s2-.9 2-2V2c0-1.1-.9-2-2-2zM-72 24h-8c-1.1 0-2-.9-2-2V2c0-1.1.9-2 2-2h8c1.1 0 2 .9 2 2v20c0 1.1-.9 2-2 2zM-40.33 24H-41c-1.65 0-3-1.35-3-3V3c0-1.65 1.35-3 3-3h.67c1.65 0 3 1.35 3 3v18c0 1.65-1.35 3-3 3zM-31.67 24h-.67c-1.65 0-3-1.35-3-3V3c0-1.65 1.35-3 3-3h.67c1.65 0 3 1.35 3 3v18c0 1.65-1.35 3-3 3zM-23 24h-.67c-1.65 0-3-1.35-3-3V3c0-1.65 1.35-3 3-3h.67c1.65 0 3 1.35 3 3v18c0 1.65-1.35 3-3 3z"/><g><path class="st0" d="M4 8H.76a.76.76 0 0 0-.76.76v6.48c0 .42.34.76.76.76H4c.2 0 .39-.08.53-.22l3.24-3.24c.3-.3.3-.77 0-1.07L4.53 8.22A.75.75 0 0 0 4 8zM20 8h-9.84c-.68 0-1.02.82-.54 1.3l2.16 2.16c.3.3.3.78 0 1.08L9.62 14.7c-.48.48-.14 1.3.54 1.3H20c.2 0 .4-.08.54-.22l3.24-3.24c.29-.29.29-.77 0-1.07l-3.24-3.24A.758.758 0 0 0 20 8z"/></g></g></svg>